:SAMPLES-PER-SECOND 30
:FULLY-SPECIFIED
:DEGREES
50
root  43.8767 39.4896 -34.6477 -156.623 -80.2765 153.484
RightUpLeg  -15.7773 0.51921 -9.04516
RightLeg  60.0187 -2.13164 -4.48389
RightFoot  5.39316 -0.933138 6.57144
RightToes  1.16414e-010 0 -3.6325e-017
Spine  7.95556 0.814107 -1.73432
Spine1  10.534 2.10375 -5.53345
HEad  -18.1312 6.84971 -6.91166
LeftShoulder1  8.74384 -12.5787 -47.4484
LeftArm  -8.36741 9.20933 -26.6051
LeftForeArm  26.4123 -10.9057 -5.73921
LeftHand  -0.244104 0.0205437 5.32207
RightShoulder  7.17572 10.8588 43.5709
RightArm  9.58808 -6.99718 34.4651
RightForeArm  2.32332 14.2074 8.05576
RightHand  -1.01053 1.97695 -16.035
LeftUpLeg  -6.78363 13.3223 -7.84065
LeftLeg  17.2006 7.61184 0.319647
LeftFoot  -9.8973 0.0154656 3.52357
LeftToes  2.00086e-010 -2.05915e-011 4.26721e-011
51
root  42.6031 39.6705 -34.6229 -159.036 -81.3448 155.588
RightUpLeg  -19.0437 -0.530139 -7.64858
RightLeg  55.1299 -2.93624 -4.93841
RightFoot  4.26114 -0.704839 5.34544
RightToes  1.16414e-010 0 -3.6325e-017
Spine  8.67668 0.271253 -1.64736
Spine1  10.2804 1.21334 -4.4397
HEad  -17.6346 6.74942 -6.34386
LeftShoulder1  8.66951 -12.5182 -47.2182
LeftArm  -6.67676 7.61732 -27.5962
LeftForeArm  23.9418 -14.9593 -5.12227
LeftHand  -0.244104 0.0205437 5.32207
RightShoulder  7.13203 10.7704 43.5741
RightArm  6.77936 -9.48945 33.7685
RightForeArm  6.45701 11.8255 8.63282
RightHand  -0.994549 1.90781 -15.9289
LeftUpLeg  -3.09461 9.95671 -6.35345
LeftLeg  15.1778 10.0332 -0.925624
LeftFoot  -10.6716 0.0458049 3.18215
LeftToes  2.00086e-010 -2.05915e-011 4.26721e-011
52
root  41.3128 39.7467 -34.6126 -161.029 -82.4345 157.23
RightUpLeg  -20.9967 -2.19512 -6.21844
RightLeg  47.182 -3.64105 -4.53168
RightFoot  3.03623 -0.518104 4.28325
RightToes  1.16414e-010 0 -3.6325e-017
Spine  9.34572 -0.240686 -1.65451
Spine1  10.1272 0.348139 -3.2918
HEad  -17.1358 6.61932 -5.84948
LeftShoulder1  8.61327 -12.4521 -47.1037
LeftArm  -4.60221 5.91058 -28.2912
LeftForeArm  21.5303 -19.1785 -4.24953
LeftHand  -0.244104 0.0205437 5.32207
RightShoulder  7.12838 10.7533 43.6057
RightArm  4.06577 -11.9274 32.7716
RightForeArm  9.89384 10.0033 8.7244
RightHand  -0.916381 1.67926 -15.1549
LeftUpLeg  0.263014 7.64631 -5.40856
LeftLeg  13.7053 11.2657 -1.77724
LeftFoot  -11.9497 0.0856761 2.78865
LeftToes  2.00086e-010 -2.05915e-011 4.26721e-011
53
root  39.9809 39.6293 -34.6467 -160.048 -82.8607 156.217
RightUpLeg  -22.1245 -4.38969 -5.12538
RightLeg  36.6323 -3.98985 -3.44103
RightFoot  2.13005 -0.560928 4.8658
RightToes  1.16414e-010 0 -3.6325e-017
Spine  9.45475 -0.440036 -2.36682
Spine1  10.128 -0.16949 -2.32813
HEad  -16.755 6.44313 -5.45537
LeftShoulder1  8.5684 -12.4 -47.0096
LeftArm  -3.78957 3.96656 -28.641
LeftForeArm  21.1794 -22.9636 -3.89094
LeftHand  -0.244104 0.0205437 5.32207
RightShoulder  7.09694 10.7088 43.5462
RightArm  1.34998 -14.0376 31.835
RightForeArm  12.2099 8.45536 8.48321
RightHand  -0.824325 1.31246 -14.3865
LeftUpLeg  2.69906 6.50813 -5.21014
LeftLeg  13.499 11.8099 -2.26658
LeftFoot  -14.132 0.138825 2.2129
LeftToes  2.00086e-010 -2.05915e-011 4.26721e-011
54
root  38.5665 39.4445 -34.7116 -156.577 -82.8671 153.058
RightUpLeg  -22.5134 -7.949 -3.69105
RightLeg  23.9733 -3.22601 -1.93552
RightFoot  2.48511 -0.66829 5.64546
RightToes  1.16414e-010 0 -3.6325e-017
Spine  8.86807 -0.477025 -3.409
Spine1  10.2934 -0.477113 -1.27784
HEad  -16.4163 6.32012 -5.04222
LeftShoulder1  8.52519 -12.3573 -46.8959
LeftArm  -4.53954 2.10969 -28.673
LeftForeArm  23.1325 -26.2434 -4.38157
LeftHand  -0.244104 0.0205437 5.32207
RightShoulder  6.97828 10.5311 43.3497
RightArm  -1.27035 -15.7334 31.2472
RightForeArm  13.2786 6.81036 8.00508
RightHand  -0.798324 1.15509 -14.2585
LeftUpLeg  4.8929 5.76032 -5.48666
LeftLeg  13.2129 12.3636 -2.69843
LeftFoot  -16.0142 0.179852 2.03168
LeftToes  2.00086e-010 -2.05915e-011 4.26721e-011
55
root  37.0793 39.2847 -34.7753 -152.989 -83.1028 149.677
RightUpLeg  -21.6519 -10.5903 -2.70989
RightLeg  10.1163 -2.88218 0.689646
RightFoot  3.01948 -0.735258 5.99138
RightToes  1.16414e-010 0 -3.6325e-017
Spine  8.13113 -0.643596 -3.92296
Spine1  10.6458 -0.864952 -0.257271
HEad  -16.0559 6.15966 -4.55442
LeftShoulder1  8.47844 -12.3175 -46.7525
LeftArm  -5.25508 0.669981 -28.5455
LeftForeArm  25.2017 -29.0781 -4.91948
LeftHand  -0.244104 0.0205437 5.32207
RightShoulder  6.82871 10.297 43.1282
RightArm  -3.40408 -17.3137 30.8918
RightForeArm  13.446 5.47149 7.35351
RightHand  -0.829942 1.31999 -14.4636
LeftUpLeg  7.77326 5.14388 -5.7288
LeftLeg  11.9189 12.6501 -3.19771
LeftFoot  -17.2469 0.220268 2.25901
LeftToes  2.00086e-010 -2.05915e-011 4.26721e-011
56
root  35.4837 39.0036 -34.8506 -149.307 -83.3917 145.719
RightUpLeg  -19.8044 -6.03553 -5.12148
RightLeg  -1.4972 -8.16402 4.60307
RightFoot  1.93271 -0.787255 6.91176
RightToes  1.16414e-010 0 -3.6325e-017
Spine  7.63113 -0.900304 -3.98622
Spine1  10.9619 -1.19697 0.168652
HEad  -15.6611 5.8499 -4.1212
LeftShoulder1  8.43265 -12.2859 -46.5889
LeftArm  -6.00365 -0.274267 -28.4192
LeftForeArm  26.7804 -31.2828 -5.34794
LeftHand  -0.244104 0.0205437 5.32207
RightShoulder  6.74261 10.1845 42.9228
RightArm  -5.07935 -18.9498 30.5127
RightForeArm  13.1621 4.84875 6.82775
RightHand  -0.842723 1.43335 -14.4471
LeftUpLeg  11.238 5.03555 -5.82192
LeftLeg  10.9868 12.2417 -3.60617
LeftFoot  -19.0303 0.247723 2.01045
LeftToes  2.00086e-010 -2.05915e-011 4.26721e-011
57
root  33.7924 38.5943 -34.9536 -147.182 -83.3819 143.131
RightUpLeg  -19.9412 -6.27546 -4.91211
RightLeg  -5.22269 -7.44292 5.41308
RightFoot  -0.487283 -0.734914 7.62793
RightToes  1.16414e-010 0 -3.6325e-017
Spine  7.25415 -1.07931 -3.8955
Spine1  11.0738 -1.36739 0.302018
HEad  -15.185 5.63529 -3.96347
LeftShoulder1  8.40701 -12.2548 -46.5376
LeftArm  -6.95785 -0.66919 -28.3242
LeftForeArm  27.6227 -32.7707 -5.66206
LeftHand  -0.244104 0.0205437 5.32207
RightShoulder  6.69845 10.1789 42.642
RightArm  -6.12682 -20.1647 30.0892
RightForeArm  12.4966 4.56304 6.52116
RightHand  -0.816212 1.29323 -14.2836
LeftUpLeg  14.6137 5.57251 -5.6873
LeftLeg  11.1491 11.3542 -3.75503
LeftFoot  -21.0429 0.226767 1.17626
LeftToes  2.00086e-010 -2.05915e-011 4.26721e-011
58
root  32.1129 38.3026 -35.0624 -149.996 -83.5844 145.907
RightUpLeg  -20.851 -5.77724 -4.133
RightLeg  -3.32549 -9.59266 5.24873
RightFoot  0.025582 -0.509647 5.21645
RightToes  1.16414e-010 0 -3.6325e-017
Spine  6.90319 -1.23507 -3.10607
Spine1  11.2159 -1.73452 0.901746
HEad  -14.651 5.86173 -4.21427
LeftShoulder1  8.43305 -12.2117 -46.8162
LeftArm  -7.99287 -0.372535 -28.083
LeftForeArm  27.7863 -33.532 -5.84242
LeftHand  -0.244104 0.0205437 5.32207
RightShoulder  6.59135 10.0605 42.3052
RightArm  -6.90534 -20.4055 29.6547
RightForeArm  12.3579 4.08302 6.24774
RightHand  -0.815359 1.2584 -14.3396
LeftUpLeg  17.3416 6.91146 -4.68918
LeftLeg  11.7258 9.73052 -3.4189
LeftFoot  -21.7242 0.151986 0.237492
LeftToes  2.00086e-010 -2.05915e-011 4.26721e-011
59
root  30.3483 38.1076 -35.176 -158.542 -84.3977 154.562
RightUpLeg  -22.6384 -6.25878 -2.38373
RightLeg  3.36245 -12.0867 3.89939
RightFoot  3.54309 -0.0782392 0.84197
RightToes  1.16414e-010 0 -3.6325e-017
Spine  6.47343 -1.69645 -1.28915
Spine1  11.2753 -2.3878 1.45763
HEad  -14.1905 6.50958 -4.85829
LeftShoulder1  8.52811 -12.1749 -47.4674
LeftArm  -8.83651 0.772818 -27.6602
LeftForeArm  27.5681 -33.4504 -5.83477
LeftHand  -0.244104 0.0205437 5.32207
RightShoulder  6.41686 9.76248 42.0976
RightArm  -7.77352 -19.9192 29.1133
RightForeArm  12.7985 3.72879 5.91581
RightHand  -0.882538 1.6446 -14.6787
LeftUpLeg  19.5267 10.0959 -2.02144
LeftLeg  13.6509 5.5997 -2.32933
LeftFoot  -21.7487 -0.0446285 -1.87222
LeftToes  2.00086e-010 -2.05915e-011 4.26721e-011
60
root  28.459 37.9631 -35.2822 -178.053 -84.7288 173.883
RightUpLeg  -24.4151 -10.3049 1.85603
RightLeg  11.2674 -8.274 1.16056
RightFoot  7.35695 0.486626 -2.68202
RightToes  1.16414e-010 0 -3.6325e-017
Spine  6.19426 -2.18795 2.15623
Spine1  11.1479 -2.7146 1.18401
HEad  -13.7387 7.3459 -5.73752
LeftShoulder1  8.65212 -12.1632 -48.2036
LeftArm  -9.34412 2.91251 -27.3895
LeftForeArm  27.1025 -32.3895 -5.59877
LeftHand  -0.244104 0.0205437 5.32207
RightShoulder  6.28887 9.51094 42.0518
RightArm  -8.56707 -19.3866 28.4757
RightForeArm  12.1763 4.03398 5.73211
RightHand  -0.98046 2.18988 -15.1476
LeftUpLeg  21.4879 14.4359 2.24466
LeftLeg  17.1336 0.125344 -0.976064
LeftFoot  -20.7839 -0.403649 -6.51056
LeftToes  2.00086e-010 -2.05915e-011 4.26721e-011
